Coordinates
version=1
nRows=5
nColumns=40
inDegrees=yes

Units are S.I. units (second, meters, Newtons, ...)
Angles are in degrees.

endheader
time	pelvis_tilt	pelvis_list	pelvis_rotation	pelvis_tx	pelvis_ty	pelvis_tz	hip_flexion_r	hip_adduction_r	hip_rotation_r	knee_angle_r	knee_angle_r_beta	ankle_angle_r	subtalar_angle_r	mtp_angle_r	hip_flexion_l	hip_adduction_l	hip_rotation_l	knee_angle_l	knee_angle_l_beta	ankle_angle_l	subtalar_angle_l	mtp_angle_l	lumbar_extension	lumbar_bending	lumbar_rotation	arm_flex_r	arm_add_r	arm_rot_r	elbow_flex_r	pro_sup_r	wrist_flex_r	wrist_dev_r	arm_flex_l	arm_add_l	arm_rot_l	elbow_flex_l	pro_sup_l	wrist_flex_l	wrist_dev_l
     37.01500000	     -6.08174103	     -6.68877908	      1.90376447	      1.04478538	      0.92608665	      0.53764745	     13.42069053	      5.87155237	    -15.28297302	     15.47306812	     15.47306812	     10.28079597	      2.21646573	     -3.36354167	     40.35688913	    -14.75045826	      4.72953650	     43.33017103	     43.33017103	      8.36571076	    -16.44142421	     12.94881524	    -14.24217740	      6.51758275	      2.99310756	     34.48980189	    -18.71187162	      1.42609788	     70.48066354	     44.73388559	      0.00000000	      0.00000000	     -4.18992686	     -8.57536321	     -7.69902437	     26.69410664	     47.03574022	      0.00000000	      0.00000000
     37.02685714	     -6.01458449	     -6.99166802	      2.09956969	      1.04307444	      0.92619885	      0.53720234	     12.34980533	      6.28747649	    -15.58676800	     14.44676041	     14.44676041	     10.41554804	      2.91773248	     -3.44240697	     40.52970363	    -14.78201908	      4.64240584	     39.77126913	     39.77126913	      8.02074811	    -15.16085825	     13.07031206	    -14.25571132	      6.87781505	      2.93874809	     36.50670942	    -18.27350590	      1.21551269	     72.75546698	     44.68327147	      0.00000000	      0.00000000	     -5.62790180	     -8.51759137	     -7.64052320	     26.24417925	     46.98725725	      0.00000000	      0.00000000
     37.03871429	     -5.94222321	     -7.34776547	      2.28500959	      1.04150052	      0.92625612	      0.53667759	     11.19862195	      6.74595223	    -16.13300438	     13.30352733	     13.30352733	     10.50821741	      4.06737935	     -3.64659931	     40.62530654	    -14.89573621	      4.43549664	     36.26918597	     36.26918597	      7.61550890	    -13.57766188	     13.06719337	    -14.30463376	      7.29965773	      2.92450932	     38.28215231	    -17.89313043	      1.12792948	     75.62957480	     44.60978899	      0.00000000	      0.00000000	     -7.15141688	     -8.46102066	     -7.56918556	     26.22711524	     46.93022192	      0.00000000	      0.00000000
     37.05057143	     -5.89858185	     -7.76426209	      2.46061154	      1.04004600	      0.92612421	      0.53604957	     10.03863419	      7.26456542	    -16.82472534	     12.09543044	     12.09543044	     10.53880251	      5.51442322	     -4.00368671	     40.71457612	    -15.06267750	      4.17635550	     32.92469290	     32.92469290	      7.17105875	    -11.85104381	     12.92536429	    -14.31721797	      7.81346844	      3.12953983	     39.80073565	    -17.77171062	      1.04100783	     79.10826831	     44.52348666	      0.00000000	      0.00000000	     -8.70020405	     -8.39269327	     -7.37331033	     26.83236063	     46.84171240	      0.00000000	      0.00000000
     37.06242857	     -5.82696121	     -8.00996928	      2.53761090	      1.03876946	      0.92612219	      0.53536012	      8.86956803	      7.63141834	    -17.18953817	     10.97353619	     10.97353619	     10.65257127	      6.62004398	     -4.14679350	     40.53197144	    -15.11443122	      3.68277194	     29.59599269	     29.59599269	      6.77093802	    -10.16691379	     13.34495843	    -14.31735466	      8.07804202	      3.24793279	     41.38602650	    -17.32092653	      0.97860964	     81.65716914	     44.45978518	      0.00000000	      0.00000000	    -10.15074843	     -8.36849923	     -7.18258361	     26.93379038	     46.76979169	      0.00000000	      0.00000000
